<svg viewBox="0 0 100 100" fill="none"
    xmlns="http://www.w3.org/2000/svg" aria-hidden="true" width="35" height="35">
    <path d="M60.156 68.75c18.985 0 34.375-15.39 34.375-34.375S79.141 0 60.156 0C41.172 0 25.781 15.39 25.781 34.375S41.171 68.75 60.156 68.75Z" fill="#5A6164"></path>
    <path d="M34.375 25.781C15.391 25.781 0 41.171 0 60.156a8.569 8.569 0 0 0 8.594 8.594h51.562a8.569 8.569 0 0 0 8.594-8.594c0-18.984-15.39-34.375-34.375-34.375Z" fill="#374043"></path>
    <path d="M75 100c13.807 0 25-11.193 25-25S88.807 50 75 50 50 61.193 50 75s11.193 25 25 25Z" fill="#CFFFFF" fill-opacity="0.8"></path>
    <path d="M56.25 68.75c-13.828 0-25 11.172-25 25 0 3.438 2.813 6.25 6.25 6.25H75c3.438 0 6.25-2.813 6.25-6.25 0-13.828-11.172-25-25-25Z" fill="#CDFAFA"></path>
</svg>